<svg width="530" height="128" xmlns="http://www.w3.org/2000/svg">
  <path d="M64 0c11.47 0 22.707.642 33.712 1.925l1.94.233c13.7 1.695 24.495 12.49 26.19 26.19C127.281 39.973 128 51.857 128 64c0 11.47-.642 22.707-1.925 33.712l-.233 1.94c-1.695 13.7-12.49 24.495-26.19 26.19C88.027 127.281 76.143 128 64 128c-11.47 0-22.707-.642-33.712-1.925l-1.94-.233c-13.7-1.695-24.495-12.49-26.19-26.19C.719 88.027 0 76.143 0 64c0-11.47.642-22.707 1.925-33.712l.233-1.94c1.695-13.7 12.49-24.495 26.19-26.19C39.973.719 51.857 0 64 0Zm434.63 49.725.609 4.837h.57c1.6-1.829 3.238-3.085 4.914-3.81 1.638-.685 3.656-1.027 6.056-1.027 5.408 0 9.902 2.056 13.52 6.17 3.58 4.113 5.37 9.369 5.37 15.729 0 6.513-1.714 11.769-5.103 15.844-3.39 4.075-7.96 6.094-13.635 6.094-3.999 0-7.389-1.372-10.13-4.152h-.534v7.58c0 4.15 1.333 6.664 4.037 7.502l-.686 3.504h-21.061l-.762-3.504c2.704-.838 4.037-3.351 4.037-7.503V67.13c0-4.15-1.37-6.664-4.151-7.502l.876-3.504c5.56-.952 10.512-3.085 14.892-6.398h1.18Zm-48.68 0 .609 4.837h.57c1.6-1.829 3.238-3.085 4.914-3.81 1.638-.685 3.656-1.027 6.056-1.027 5.408 0 9.902 2.056 13.52 6.17 3.58 4.113 5.37 9.369 5.37 15.729 0 6.513-1.714 11.769-5.103 15.844-3.39 4.075-7.96 6.094-13.635 6.094-4 0-7.389-1.372-10.13-4.152h-.534v7.58c0 4.15 1.333 6.664 4.037 7.502l-.686 3.504h-21.061l-.762-3.504c2.704-.838 4.037-3.351 4.037-7.503V67.13c0-4.15-1.37-6.664-4.151-7.502l.876-3.504c5.56-.952 10.512-3.085 14.892-6.398h1.18ZM106.556 59.21c-3.235 6.345-9.141 11.741-16.16 16.083-7.05 4.049-15.327 7.578-24.493 8.488-9.167.91-17.287.395-24.803-1.33-7.544-1.549-13.78-5.063-18.197-8.163L19.95 76.9C31.515 90.322 47.446 97.418 67.61 96.917c20.126-.416 34.185-11.586 41.9-35.245l-2.953-2.462Zm220.666-9.41c5.256 0 9.712 1.258 13.368 3.81 3.657 2.551 5.485 5.788 5.485 9.673 0 1.828-.686 3.466-2.095 4.875-1.41 1.447-3.047 2.171-4.913 2.171-4.266 0-6.78-2.285-7.693-5.103a46.548 46.548 0 0 1-1.257-4.152c-.762-2.742-2.247-5.027-5.18-5.027-1.485 0-2.818.8-3.923 2.437-1.104 1.638-1.676 3.809-1.676 6.513 0 11.007 4.647 17.177 13.483 17.177 2.095 0 4.037-.533 5.903-1.562 1.828-1.028 3.314-2.17 4.494-3.427l2.704 1.028c-1.561 10.245-7.579 15.349-18.09 15.349-6.818 0-12.34-2.171-16.568-6.551-4.227-4.38-6.36-9.484-6.36-15.387 0-6.703 2.133-12.035 6.398-15.958 4.266-3.923 9.56-5.865 15.92-5.865Zm-83.268 0c4.075 0 7.617.915 10.664 2.743 3.009 1.866 5.18 4.456 6.475 7.808.685 1.6 1.637 2.475 2.818 2.628l.762 4.303-26.356 8.036c2.133 4.57 6.208 6.856 12.188 6.856 3.694 0 7.046-1.714 10.054-5.142l2.743.99c-.267 4.152-2.133 7.808-5.599 10.893-3.504 3.085-7.922 4.647-13.216 4.647-6.817 0-12.302-2.171-16.53-6.551-4.227-4.38-6.321-9.484-6.321-15.387 0-6.703 2.132-12.035 6.398-15.958s9.56-5.865 15.92-5.865Zm-67.19-12.415L187.43 65.72h.457l10.855-28.336h17.024l.686 3.542c-2.552.838-3.58 3.313-3.123 7.465l3.923 32.601c.457 4.152 2.056 6.665 4.798 7.503L221.288 92h-23.385l-.8-3.504c2.552-.838 3.58-3.351 3.123-7.503l-2.323-19.728h-.8L185.335 92h-6.018l-11.692-31.116h-.61l-2.437 20.11c-.457 4.15.571 6.664 3.123 7.502L167.015 92h-13.673l-.761-3.504c2.78-.838 4.38-3.351 4.837-7.503l3.884-32.601c.457-4.152-.57-6.665-3.123-7.465l.8-3.542h17.786Zm106.691 12.34.457 5.789h.381c2.514-3.847 6.17-5.79 10.93-5.79 2.629 0 4.876.877 6.666 2.667 1.79 1.79 2.704 4.075 2.704 6.779 0 2.437-.762 4.494-2.323 6.17-1.562 1.714-3.466 2.552-5.713 2.552-4.913.038-6.246-3.047-6.97-5.294-.61-1.562-1.447-2.895-2.78-2.895-1.6 0-2.4 1.866-2.438 5.56v15.73c0 4.152 1.371 6.665 4.152 7.503L287.646 92h-21.062l-.761-3.504c2.704-.838 4.037-3.351 4.037-7.503V67.206c0-4.151-1.333-6.665-4.037-7.503l.761-3.504a31.543 31.543 0 0 0 6.208-1.561c2.019-.724 3.58-1.448 4.723-2.095a127.88 127.88 0 0 0 4.76-2.818h1.181Zm81.06 0v31.344c0 4.114 1.37 6.627 4.151 7.503L367.791 92h-21.062l-.761-3.428c2.704-.876 4.037-3.39 4.037-7.503V66.635c0-4.152-1.333-6.665-4.037-7.465l.761-3.504c6.132-.952 11.693-2.933 16.644-5.941h1.143Zm43.532-14.206 19.043 45.474c1.79 4.152 4.152 6.665 7.16 7.503L433.49 92h-24.832l-.762-3.504c2.4-.838 2.704-3.351.952-7.503l-.266-.533h-19.576l-.229.533c-1.79 4.152-1.447 6.665.952 7.503l-.8 3.504h-13.101l-.762-3.504c3.123-.838 5.523-3.351 7.16-7.503l13.33-31.954c-.952-1.98-2.437-3.885-4.494-5.713l.457-3.504c.8 0 1.79-.038 3.009-.114 1.219-.076 3.237-.495 6.094-1.219 2.818-.723 5.065-1.714 6.74-2.97h.686Zm49.138 21.442c-3.466 0-5.447 3.542-5.447 8.76 0 3.542.686 7.96 2.095 12.53.686 2.323 1.714 4.228 3.085 5.751 1.371 1.523 2.933 2.285 4.723 2.285 1.713 0 3.085-.838 4.113-2.475 1.028-1.638 1.523-3.695 1.523-6.17 0-3.2-.647-7.618-2.094-12.34-.724-2.323-1.79-4.304-3.162-5.942-1.409-1.6-3.008-2.4-4.836-2.4Zm48.68 0c-3.466 0-5.447 3.542-5.447 8.76 0 3.542.686 7.96 2.095 12.53.686 2.323 1.714 4.228 3.085 5.751 1.371 1.523 2.933 2.285 4.723 2.285 1.713 0 3.085-.838 4.113-2.475 1.028-1.638 1.523-3.695 1.523-6.17 0-3.2-.647-7.618-2.094-12.34-.724-2.323-1.79-4.304-3.162-5.942-1.409-1.6-3.008-2.4-4.836-2.4Zm-106.882.495h-.38l-6.78 16.225H405.8l-6.817-16.225Zm-156.743-.724c-1.561 0-2.894.8-4.037 2.438-1.18 1.638-1.752 3.58-1.752 5.75 0 1.6.076 3.048.229 4.38l11.54-3.503c-.153-2.323-.724-4.418-1.714-6.284-1.029-1.867-2.438-2.78-4.266-2.78ZM49.227 35.982c-2.96.457-5.246 1.977-6.903 4.543-1.708 2.542-2.35 5.384-2.021 8.51.124 1.178.672 2.363 1.65 3.613l-.376.453c-3.287-.855-6.138-2.035-8.604-3.58-2.422-1.57-4.82-3.803-7.201-6.782l-5.13 4.424c2.99 5.19 6.998 9.328 11.984 12.48 5.04 3.228 10.326 4.754 15.793 4.434 4.345-.262 7.614-1.815 9.81-4.635 2.144-2.858 2.993-6.412 2.55-10.631-.421-4-1.7-7.223-3.847-9.754-2.19-2.491-4.743-3.529-7.705-3.075Zm30.903-4.486c-3.289.475-5.83 2.236-7.628 5.26-1.801 2.994-2.525 6.399-2.116 10.285.402 3.83 1.817 7.002 4.2 9.54 2.379 2.51 5.23 3.683 8.541 3.438 3.312-.248 5.87-1.864 7.67-4.866 1.797-3.029 2.459-6.572 2.034-10.616-.431-4.103-1.821-7.483-4.207-10.056-2.383-2.546-5.212-3.515-8.494-2.985Zm276.768.366c2.59 0 4.647.8 6.208 2.4 1.524 1.637 2.286 3.466 2.286 5.56 0 2.019-.762 3.809-2.286 5.37-1.561 1.562-3.618 2.362-6.208 2.362-2.628 0-4.684-.762-6.17-2.324-1.523-1.523-2.285-3.313-2.285-5.408 0-2.094.762-3.923 2.285-5.56 1.486-1.6 3.542-2.4 6.17-2.4Z" fill="#01072C" fill-rule="evenodd"/>
</svg>